<?xml version="1.0" standalone="no"?>
<!DOCTYPE svg PUBLIC "-//W3C//DTD SVG 20010904//EN"
 "http://www.w3.org/TR/2001/REC-SVG-20010904/DTD/svg10.dtd">
<svg version="1.0" xmlns="http://www.w3.org/2000/svg"
 width="300.000000pt" height="300.000000pt" viewBox="0 0 300.000000 300.000000"
 preserveAspectRatio="xMidYMid meet">
<metadata>
Created by potrace 1.11, written by Peter Selinger 2001-2013
</metadata>
<g transform="translate(0.000000,300.000000) scale(0.100000,-0.100000)"
fill="#000000" stroke="none">
<path d="M2818 2978 c-333 -58 -571 -130 -814 -248 -263 -127 -430 -260 -609
-482 -28 -34 -125 -201 -125 -215 0 -18 -1 -18 -90 27 -185 93 -444 177 -670
216 -25 4 -47 8 -50 9 -5 1 -98 14 -150 21 -49 7 -196 17 -245 18 -49 1 -50 1
-49 -29 2 -51 14 -228 19 -265 2 -19 7 -60 10 -90 7 -62 23 -198 30 -247 3
-18 7 -50 10 -70 3 -21 10 -60 15 -88 5 -27 12 -66 15 -85 25 -157 99 -450
154 -611 145 -420 316 -651 571 -771 133 -63 324 -83 454 -48 84 22 179 70
230 115 21 19 41 35 45 35 3 0 21 -9 39 -20 18 -11 60 -27 93 -35 232 -54 550
104 751 373 91 122 217 426 277 667 5 22 17 67 25 101 8 34 17 72 20 85 2 13
11 56 19 94 9 39 18 84 21 100 18 101 35 207 41 254 4 30 8 62 10 71 2 9 6 41
9 71 4 30 9 70 11 89 9 73 14 117 20 180 22 239 31 384 40 633 l6 157 -44 -2
c-25 -2 -65 -6 -89 -10z"/>
</g>
</svg>
